<?xml version="1.0" encoding="UTF-8"?>
<svg id="Layer_1" data-name="Layer 1" xmlns="http://www.w3.org/2000/svg" viewBox="0 0 813.17 173.7">
  <defs>
    <style>
      .cls-1 {
        fill: #fff;
      }
    </style>
  </defs>
  <g>
    <path class="cls-1" d="M649.44,67.5c6.6-2.68,12.1-4.5,16.52-5.45,4.42-.95,9.7-1.43,15.85-1.43,8.16,0,15.21,2.13,21.14,6.38,5.93,4.25,8.89,10.68,8.89,19.29v32.88c0,3.92,1.73,5.87,5.2,5.87,1.01,0,2.07-.17,3.19-.5l.17,11.41c-4.36,2.35-8.89,3.52-13.59,3.52-9.96,0-15.49-4.97-16.61-14.93v-.17c-2.13,3.8-5.17,7.27-9.14,10.4-3.97,3.13-9.03,4.7-15.18,4.7-5.48,0-10.74-1.62-15.77-4.86-5.03-3.24-7.55-8.83-7.55-16.78,0-9.28,3.72-15.43,11.16-18.45,7.44-3.02,15.46-4.53,24.07-4.53,4.81,0,8.95,.23,12.41,.67v-2.52c0-3.91-.53-7.72-1.59-11.41-1.06-3.69-4.67-5.54-10.82-5.54-2.24,0-4.28,.14-6.12,.42-1.85,.28-3.67,.87-5.45,1.76l-2.85,10.74-17.28-1.84,3.36-19.63Zm40.76,39.42v-1.01c-1.79-.22-3.61-.45-5.45-.67-1.84-.22-3.66-.34-5.45-.34-3.8,0-7.16,.7-10.07,2.1-2.91,1.4-4.36,4.17-4.36,8.3,0,2.46,.67,4.53,2.01,6.21,1.34,1.68,3.63,2.52,6.88,2.52,3.8,0,7.35-1.37,10.65-4.11,3.3-2.74,5.23-7.07,5.79-13Z"/>
    <path class="cls-1" d="M778.06,139.79h-41.77v-16.27h10.07v-42.95h-10.9v-16.44h32.54v59.39h10.07v16.27Zm-32.54-89.08V28.23h21.64v22.48h-21.64Z"/>
  </g>
  <g>
    <path class="cls-1" d="M226.64,77.18c-11.15,0-18.04,8.23-18.04,22.57,0,13.15,6.07,23.27,17.86,23.27s18.71-9.11,18.71-23.6c0-15.34-8.26-22.23-18.53-22.23Z"/>
    <path class="cls-1" d="M524.59,115.42c0,4.89,2.37,8.78,8.93,8.78,7.74,0,16.01-5.56,16.52-18.22-3.55-.49-7.44-1-10.96-1-7.75,0-14.49,2.19-14.49,10.45Z"/>
    <path class="cls-1" d="M0,0V173.7H607.45V0H0ZM176.74,138.01h-31.86v-42.79c0-13.15-4.37-18.19-12.97-18.19-10.45,0-14.67,7.41-14.67,18.04v26.42h10.11v16.52h-31.83v-42.79c0-13.15-4.37-18.19-12.97-18.19-10.45,0-14.67,7.41-14.67,18.04v26.42h14.49v16.52H36.05v-16.52h10.11v-42.98h-10.11v-16.52h31.83v11.45c4.56-8.08,12.48-12.97,23.08-12.97s21.05,5.22,24.78,16.34c4.22-10.11,12.82-16.34,24.78-16.34,13.64,0,26.12,8.26,26.12,26.27v34.75h10.08v16.52Zm49.05,1.67c-23.42,0-39.61-14.31-39.61-38.57,0-22.23,13.49-40.61,40.79-40.61s40.61,18.34,40.61,39.58c0,24.27-17.52,39.61-41.79,39.61Zm122.55-1.67h-66.39l-2.19-11.45,41.79-48.02h-23.75l-3.37,11.78-15.67-1.7,2.7-26.64h66.73l1.7,11.45-42.16,48.05h24.6l3.52-11.78,17.19,1.67-4.71,26.64Zm43.37,0h-22.75v-27.3h22.75v27.3Zm0-48.72h-22.75v-27.27h22.75v27.27Zm14.24,48.72l32.86-115.93h21.38l-32.86,115.93h-21.38Zm44.1,0l32.86-115.93h21.41l-32.86,115.93h-21.41Zm116.6,1.67c-10.11,0-15.67-5.89-16.67-15.16-4.37,7.74-12.12,15.16-24.42,15.16-10.96,0-23.42-5.92-23.42-21.75,0-18.71,18.04-23.08,35.38-23.08,4.22,0,8.6,.15,12.48,.67v-2.52c0-7.74-.18-17.01-12.48-17.01-4.56,0-8.08,.33-11.63,2.19l-2.46,8.57-17.34-1.85,2.98-17.49c13.33-5.38,20.05-6.89,32.53-6.89,16.34,0,30.16,8.44,30.16,25.79v33.01c0,4.37,1.67,5.89,5.22,5.89,1,0,2-.18,3.19-.52l.12,11.45c-4.04,2.22-8.93,3.55-13.64,3.55Z"/>
  </g>
  <path class="cls-1" d="M811.17,2V171.7h-201.73V2h201.73m2-2h-205.73V173.7h205.73V0h0Z"/>
</svg>